# xmcd
#
# Track frame offsets: 
#        150
#        3102
#        27895
#        50707
#        60336
#        76194
#        87456
#        102423
#        125184
#        146885
#        169082
#        196377
#        227343
#        247562
#        260567
#        288327
#
# Disc length: 4185 seconds
#
# Revision: 0
# Processed by: cddbd v1.5.2PL0 Copyright (c) Steve Scherf et al.
# Submitted via: ExactAudioCopy v0.99pb3
#
DISCID=d2105710
DTITLE=Hans Teessink - Birthday Bash
DYEAR=2008
DGENRE=Blues
TTITLE0=Welcome
TTITLE1=Slow Train
TTITLE2=Brand new dawn
TTITLE3=Happy Birthday
TTITLE4=Gone Girl
TTITLE5=It´ll be me
TTITLE6=Gues things happen that way
TTITLE7=Back home to you
TTITLE8=Banjoman
TTITLE9=Shake a hand
TTITLE10=Bring it on home
TTITLE11=Another land
TTITLE12=Bourgeois Blues
TTITLE13=Glory of love
TTITLE14=Built for comfort
TTITLE15=I shall not be moved
EXTD=
EXTT0=
EXTT1=
EXTT2=
EXTT3=
EXTT4=
EXTT5=
EXTT6=
EXTT7=
EXTT8=
EXTT9=
EXTT10=
EXTT11=
EXTT12=
EXTT13=
EXTT14=
EXTT15=
PLAYORDER=
